<?xml version="1.0" standalone="no"?>
<!DOCTYPE svg PUBLIC "-//W3C//DTD SVG 20010904//EN"
 "http://www.w3.org/TR/2001/REC-SVG-20010904/DTD/svg10.dtd">
<svg version="1.0" xmlns="http://www.w3.org/2000/svg"
 width="512.000000pt" height="512.000000pt" viewBox="0 0 512.000000 512.000000"
 preserveAspectRatio="xMidYMid meet">
<metadata>
Created by potrace 1.15, written by Peter Selinger 2001-2017
</metadata>
<g transform="translate(0.000000,512.000000) scale(0.100000,-0.100000)"
fill="#ffffff" stroke="none">
<path d="M665 5109 c-28 -15 -605 -591 -605 -604 0 -14 579 -590 607 -604 91
-46 188 51 142 142 -6 12 -86 97 -177 190 l-167 167 1325 0 1325 0 -161 -162
c-88 -90 -168 -175 -177 -190 -46 -75 6 -158 100 -158 36 0 51 13 345 307
l308 308 -308 307 c-292 292 -310 308 -344 308 -49 0 -81 -16 -101 -50 -20
-33 -21 -62 -6 -93 6 -12 88 -100 182 -194 l172 -173 -1330 0 -1330 0 167 168
c91 92 171 177 177 189 35 70 -12 153 -86 153 -21 0 -47 -5 -58 -11z"/>
<path d="M0 1795 l0 -1795 1795 0 1795 0 0 1795 0 1795 -1795 0 -1795 0 0
-1795z m3370 -5 l0 -1580 -1580 0 -1580 0 0 1580 0 1580 1580 0 1580 0 0
-1580z"/>
<path d="M4197 3222 c-290 -291 -307 -310 -307 -345 0 -48 16 -80 50 -100 67
-40 99 -20 298 176 l162 162 0 -1325 0 -1325 -167 167 c-93 91 -178 171 -190
177 -91 46 -188 -51 -142 -142 14 -28 591 -607 604 -607 6 0 147 136 313 303
l302 303 0 48 c0 39 -5 53 -29 77 -32 31 -83 39 -124 18 -12 -6 -97 -86 -189
-177 l-168 -167 0 1330 0 1329 184 -182 c161 -160 187 -182 215 -182 68 0 110
42 111 110 l0 44 -308 308 -307 308 -308 -308z"/>
</g>
</svg>
