<?xml version="1.0" standalone="no"?>
<!DOCTYPE svg PUBLIC "-//W3C//DTD SVG 20010904//EN"
 "http://www.w3.org/TR/2001/REC-SVG-20010904/DTD/svg10.dtd">
<svg version="1.0" xmlns="http://www.w3.org/2000/svg"
 width="75.000000pt" height="79.000000pt" viewBox="0 0 75.000000 79.000000"
 preserveAspectRatio="xMidYMid meet">
<metadata>
Created by potrace 1.15, written by Peter Selinger 2001-2017
</metadata>
<g transform="translate(0.000000,79.000000) scale(0.100000,-0.100000)"
fill="#ffffff" stroke="none">
<path d="M0 715 l0 -75 30 0 c23 0 30 -4 30 -20 0 -16 -7 -20 -30 -20 -20 0
-30 -5 -30 -15 0 -10 10 -15 30 -15 25 0 30 -4 30 -25 0 -21 -5 -25 -30 -25
-20 0 -30 -5 -30 -15 0 -10 10 -15 30 -15 23 0 30 -4 30 -20 0 -16 -7 -20 -30
-20 -23 0 -30 -4 -30 -20 0 -16 7 -20 30 -20 23 0 30 -4 30 -20 0 -16 -7 -20
-30 -20 -20 0 -30 -5 -30 -15 0 -10 10 -15 30 -15 23 0 30 -4 30 -20 0 -16 -7
-20 -30 -20 -23 0 -30 -4 -30 -20 0 -16 7 -20 30 -20 23 0 30 -4 30 -20 0 -16
-7 -20 -30 -20 -20 0 -30 -5 -30 -15 0 -10 10 -15 30 -15 25 0 30 -4 30 -25 0
-21 -5 -25 -30 -25 -20 0 -30 -5 -30 -15 0 -10 10 -15 30 -15 23 0 30 -4 30
-20 0 -16 -7 -20 -30 -20 -28 0 -30 -3 -30 -35 l0 -35 376 0 375 0 -18 23
c-24 31 -724 767 -729 767 -2 0 -4 -34 -4 -75z m389 -474 l133 -141 -211 0
-211 0 0 223 1 222 77 -82 c42 -45 137 -145 211 -222z"/>
</g>
</svg>
