<?xml version="1.0" standalone="no"?>
<!DOCTYPE svg PUBLIC "-//W3C//DTD SVG 20010904//EN"
 "http://www.w3.org/TR/2001/REC-SVG-20010904/DTD/svg10.dtd">
<svg version="1.0" xmlns="http://www.w3.org/2000/svg"
 width="200.000000pt" height="200.000000pt" viewBox="0 0 200.000000 200.000000"
 preserveAspectRatio="xMidYMid meet">
<metadata>
Created by potrace 1.15, written by Peter Selinger 2001-2017
</metadata>
<g transform="translate(0.000000,200.000000) scale(0.100000,-0.100000)"
fill="#ffffff" stroke="none">
<path d="M423 1504 c-3 -9 -2 -24 4 -33 9 -13 35 -16 167 -19 86 -1 156 -5
156 -9 0 -10 -214 -373 -220 -373 -3 0 -16 20 -29 45 -45 84 -46 82 -250 -270
-122 -210 -181 -322 -179 -337 l3 -23 922 -3 922 -2 11 21 c18 33 -4 49 -66
49 l-54 0 0 290 0 290 21 -21 c22 -22 37 -21 53 4 11 18 6 29 -61 135 -46 73
-61 70 -117 -26 -48 -82 -56 -116 -31 -126 22 -8 41 2 53 27 8 16 11 -59 11
-276 l1 -298 -67 3 -67 3 -227 395 c-171 297 -232 396 -247 398 -16 3 -30 -12
-64 -72 l-43 -75 -72 125 -72 124 512 0 c282 0 518 4 525 9 8 4 12 19 10 32
l-3 24 -748 3 c-686 2 -748 1 -754 -14z m362 -265 c8 -12 62 -12 69 0 3 5 20
8 37 7 26 -1 35 -9 61 -58 l32 -56 -119 -206 c-65 -114 -121 -209 -125 -211
-3 -2 -31 39 -62 92 l-55 95 43 75 c24 42 41 80 38 85 -3 5 5 17 18 27 12 11
34 39 47 64 21 38 23 48 12 61 -25 30 -48 18 -80 -39 -17 -30 -28 -61 -25 -70
4 -9 0 -15 -9 -15 -9 0 -31 -27 -50 -61 -21 -36 -36 -55 -40 -47 -2 8 28 70
69 139 68 115 77 126 104 127 16 0 32 -4 35 -9z m310 -199 c3 -5 19 -10 35
-10 16 0 32 5 35 10 3 6 23 10 43 10 l37 -1 112 -197 c62 -108 126 -221 143
-249 28 -48 29 -53 11 -53 -14 0 -39 36 -95 135 -67 116 -81 135 -102 135 -50
0 -45 -17 65 -212 l33 -58 -294 0 -293 0 -24 43 -23 43 118 207 119 206 37 1
c20 0 40 -4 43 -10z m-456 -304 c56 -98 99 -181 95 -185 -4 -3 -8 -1 -10 4 -2
6 -25 46 -52 90 -39 66 -51 80 -72 80 -37 0 -36 -27 5 -101 20 -36 35 -68 32
-70 -2 -2 -110 -3 -239 -2 l-236 3 105 180 104 180 83 0 83 0 102 -179z"/>
</g>
</svg>
