<?xml version="1.0" standalone="no"?>
<!DOCTYPE svg PUBLIC "-//W3C//DTD SVG 20010904//EN"
 "http://www.w3.org/TR/2001/REC-SVG-20010904/DTD/svg10.dtd">
<svg version="1.0" xmlns="http://www.w3.org/2000/svg"
 width="200.000000pt" height="200.000000pt" viewBox="0 0 200.000000 200.000000"
 preserveAspectRatio="xMidYMid meet">
<metadata>
Created by potrace 1.15, written by Peter Selinger 2001-2017
</metadata>
<g transform="translate(0.000000,200.000000) scale(0.100000,-0.100000)"
fill="#ffffff" stroke="none">
<path d="M847 1794 c-373 -67 -657 -411 -657 -794 0 -387 285 -729 665 -795
48 -8 94 -15 101 -15 12 0 14 131 14 810 l0 810 -22 -1 c-13 0 -58 -7 -101
-15z"/>
<path d="M1040 1712 l0 -99 55 -7 c122 -14 256 -87 354 -192 107 -113 163
-257 163 -414 0 -168 -58 -307 -182 -431 -92 -93 -206 -154 -319 -172 l-71
-11 0 -99 0 -98 48 6 c298 42 527 207 647 468 160 350 49 771 -262 993 -111
80 -236 128 -385 149 l-48 6 0 -99z"/>
<path d="M1040 1425 c0 -113 0 -115 23 -115 70 0 189 -98 230 -188 32 -72 29
-179 -7 -254 -37 -78 -111 -143 -187 -166 l-59 -17 0 -112 0 -113 29 0 c16 0
57 9 92 20 339 104 487 499 304 805 -46 77 -100 132 -172 175 -66 41 -174 79
-220 80 l-33 0 0 -115z"/>
<path d="M1040 1001 c0 -275 -5 -264 85 -212 61 35 100 88 116 158 29 126 -53
266 -170 289 l-31 7 0 -242z"/>
</g>
</svg>
